<svg width="234" height="33" viewBox="0 0 234 33" fill="none" xmlns="http://www.w3.org/2000/svg">
<path d="M159.199 12.4808L161.877 6.4234C162.4 5.23295 162.569 4.97214 163.125 4.82491V4.41688L160.324 4.42108V4.82912C161.247 5.03103 161.35 5.51058 160.925 6.52856L159.85 9.15766L158.507 6.06584C158.223 5.38438 158.264 4.99317 159.245 4.87539V4.42529L155.504 4.4337V4.8838C155.945 4.99738 156.118 5.18667 156.501 5.99854L158.886 11.2189L158.491 12.0896C158.264 12.5986 158.05 12.9772 157.811 13.1959C157.638 12.6028 157.313 12.2831 156.802 12.2831C156.291 12.2831 155.85 12.6323 155.85 13.3137C155.85 13.9952 156.394 14.5042 157.033 14.5C157.939 14.5042 158.507 14.0373 159.199 12.4808ZM155.401 10.6594L155.187 10.1967C154.804 10.3733 154.462 10.4575 154.165 10.4617C153.498 10.4617 153.325 10.1167 153.325 9.6372L153.317 5.2666L155.121 5.26239V4.4337L153.317 4.43791L153.313 3.08761H153.057L150.503 4.80388V5.2666H151.541L151.55 10.0158C151.55 10.9581 152.077 11.4671 153.115 11.4628C153.922 11.4628 154.722 11.1852 155.401 10.6594ZM150.001 10.8739C149.119 10.7435 148.992 10.5584 148.992 9.75919L148.983 4.19813H148.287L146.199 5.59471V5.91441H147.208L147.216 9.7634C147.216 10.5626 147.076 10.7519 146.207 10.8823V11.3324L150.001 11.324V10.8739ZM147.966 3.10864C148.563 3.10864 149.045 2.61227 149.045 1.9897C149.045 1.43864 148.629 0.988539 148.077 0.988539C147.451 0.988539 146.981 1.48491 146.986 2.09486C146.986 2.66274 147.397 3.10864 147.966 3.10864ZM145.49 9.19551C145.486 7.84521 144.394 7.42456 143.369 7.09224C142.36 6.75992 141.663 6.54539 141.659 5.78821C141.659 5.38018 141.956 5.00579 142.541 5.00159C143.266 5.00159 143.908 5.44748 144.675 6.33506L145.045 6.15839L144.502 4.35798H144.275L144.02 4.57672C143.62 4.40426 143.167 4.3033 142.681 4.3033C141.173 4.30751 140.193 5.19509 140.197 6.52856C140.201 7.87886 141.293 8.27007 142.318 8.61501C143.328 8.95995 144.024 9.16186 144.028 9.93166C144.028 10.4112 143.674 10.773 142.99 10.7772C142.038 10.7772 141.309 10.142 140.444 9.01043L140.061 9.15766L140.621 11.4208H140.864L141.276 11.1137C141.746 11.3451 142.273 11.4755 142.854 11.4755C144.3 11.4797 145.494 10.6047 145.49 9.19551ZM138.088 10.895C137.165 10.7519 137.033 10.55 137.033 9.64982L137.029 6.65897C137.313 6.13735 137.581 5.75876 137.865 5.49796C137.865 6.06584 138.253 6.42761 138.735 6.42761C139.216 6.42761 139.686 6.03219 139.686 5.27922C139.686 4.63982 139.328 4.24861 138.702 4.24861C138.005 4.24861 137.466 4.84594 136.955 5.68725L136.951 4.21917H136.325L134.265 5.60312V5.92282H135.245L135.254 9.78443C135.254 10.5837 135.126 10.7856 134.319 10.9034V11.3535L138.088 11.3451V10.895ZM129.182 6.96184C129.182 5.784 129.664 5.08992 130.599 5.08572C131.254 5.08572 131.666 5.56106 131.839 6.50753L129.194 7.44138C129.182 7.28153 129.182 7.12169 129.182 6.96184ZM133.635 10.0452L133.252 9.74237C133.048 9.98095 132.797 10.1721 132.515 10.3027C132.233 10.4333 131.926 10.5005 131.616 10.4995C130.306 10.5038 129.569 9.48577 129.293 8.16491L133.557 6.70524C133.47 5.16564 132.358 4.32854 130.949 4.32854C128.972 4.33274 127.526 5.96068 127.53 7.97982C127.534 9.98214 128.786 11.5049 130.99 11.5007C132.345 11.5007 133.153 10.8865 133.635 10.0452ZM126.179 6.4865C126.702 5.29604 126.871 5.03524 127.427 4.88801V4.47997L124.626 4.48418V4.89222C125.549 5.09413 125.652 5.57368 125.227 6.59166L124.152 9.22075L122.809 6.12894C122.525 5.44748 122.566 5.05627 123.547 4.93849V4.48839L119.806 4.4968V4.9469C120.247 5.06048 120.432 5.24977 120.803 6.06164L123.242 11.4418H123.979L126.179 6.4865ZM119.691 10.9286C118.809 10.7982 118.682 10.6131 118.678 9.81388L118.669 4.25282H117.973L115.885 5.64939V5.96909H116.894L116.902 9.81808C116.902 10.6173 116.762 10.8066 115.893 10.937V11.3871L119.687 11.3787L119.691 10.9286ZM117.66 3.16332C118.257 3.16332 118.739 2.66695 118.739 2.04438C118.739 1.49332 118.323 1.04322 117.771 1.04322C117.145 1.04322 116.676 1.5396 116.68 2.14955C116.676 2.71743 117.092 3.16332 117.66 3.16332ZM110.492 10.9454C109.681 10.8319 109.553 10.6257 109.553 9.8307L109.549 6.47808C110.258 5.82186 110.843 5.50217 111.353 5.50217C112.05 5.50217 112.251 5.86393 112.251 6.51594L112.256 9.8265C112.256 10.6257 112.128 10.8277 111.32 10.9454V11.3955L114.974 11.3871V10.937C114.163 10.8234 114.035 10.6173 114.035 9.82229L114.031 6.35189C114.031 5.19088 113.545 4.36219 112.107 4.3664C111.226 4.3664 110.361 4.92166 109.508 5.66201L109.504 4.26965H108.849L106.789 5.6536V5.9733H107.77L107.778 9.83491C107.778 10.6342 107.65 10.8361 106.843 10.9539V11.404L110.497 11.3955L110.492 10.9454ZM94.9832 2.43559L94.9915 6.78937C94.9956 9.60776 96.4374 11.5638 100.062 11.5554C103.687 11.547 105.121 9.58672 105.117 6.82723L105.113 3.32738C105.109 1.62793 105.578 1.19045 106.39 0.959093V0.508992L102.95 0.513199V0.9633C103.762 1.19466 104.231 1.62793 104.235 3.32738L104.239 6.82723C104.243 9.27964 102.979 10.4154 100.594 10.4196C98.221 10.4238 96.9399 9.29226 96.9358 6.83985L96.9276 2.42718C96.9276 1.32506 97.2365 1.13577 98.1345 1.00116V0.521612L93.8134 0.530025V1.00957C94.6949 1.14418 94.9791 1.33348 94.9832 2.43559ZM83.5933 10.9959C82.7818 10.8823 82.6541 10.6762 82.6541 9.88118L82.65 6.52856C83.3585 5.87234 83.9435 5.55264 84.4543 5.55264C85.1504 5.55264 85.3523 5.91441 85.3523 6.56642L85.3564 9.87698C85.3564 10.6762 85.2287 10.8781 84.4213 10.9959V11.446L88.0751 11.4376V10.9875C87.2636 10.8739 87.1359 10.6678 87.1359 9.87277L87.1318 6.40237C87.1318 5.24136 86.6457 4.41267 85.2081 4.41688C84.3266 4.41688 83.4615 4.97214 82.6088 5.71249L82.6047 4.32013H81.9497L79.8901 5.70408V6.02378H80.8705L80.8787 9.88539C80.8787 10.6846 80.751 10.8865 79.9436 11.0043V11.4544L83.5974 11.446L83.5933 10.9959ZM77.9375 11.0043C77.0148 10.8613 76.8829 10.6594 76.8829 9.75919L76.8788 6.76834C77.1631 6.24672 77.4308 5.86814 77.7151 5.60733C77.7151 6.17521 78.1023 6.53698 78.5842 6.53698C79.0662 6.53698 79.5358 6.14156 79.5358 5.38859C79.5358 4.74919 79.1774 4.35798 78.5513 4.35798C77.8551 4.35798 77.3155 4.95531 76.8047 5.79662L76.8006 4.32854H76.1744L74.1148 5.71249V6.03219H75.0952L75.1034 9.8938C75.1034 10.693 74.9757 10.895 74.1683 11.0127V11.4628L77.9375 11.4544V11.0043ZM69.0315 7.07541C69.0315 5.89758 69.5135 5.2035 70.4486 5.19929C71.1036 5.19929 71.5155 5.67463 71.6885 6.62111L69.0439 7.55496C69.0315 7.39511 69.0315 7.23526 69.0315 7.07541ZM73.4845 10.1588L73.1014 9.85594C72.8979 10.0945 72.6466 10.2856 72.3644 10.4163C72.0823 10.5469 71.7759 10.6141 71.466 10.6131C70.1561 10.6173 69.4188 9.59934 69.1428 8.27849L73.4062 6.81881C73.3197 5.27922 72.2075 4.44212 70.7987 4.44212C68.8214 4.44632 67.3756 6.07426 67.3797 8.0934C67.3838 10.0957 68.6361 11.6185 70.8399 11.6143C72.1952 11.6101 73.0026 11.0001 73.4845 10.1588ZM66.9183 10.8234L66.7041 10.3607C66.321 10.5332 65.9791 10.6215 65.6825 10.6215C65.0152 10.6215 64.8422 10.2766 64.8422 9.79705L64.8339 5.42645L66.6382 5.42224V4.59355L64.8339 4.59776L64.8298 3.24746H64.5744L62.0205 4.96373V5.42645H63.0585L63.0668 10.1756C63.0668 11.1179 63.594 11.6269 64.6321 11.6227C65.4436 11.6227 66.2386 11.3451 66.9183 10.8234ZM61.5426 9.35116C61.5385 8.00085 60.4469 7.5802 59.4212 7.24788C58.4119 6.91557 57.7158 6.70103 57.7117 5.94385C57.7117 5.53582 58.0082 5.16143 58.5932 5.15723C59.3182 5.15723 59.9567 5.60312 60.727 6.4907L61.0977 6.31403L60.554 4.51783H60.3274L60.072 4.73657C59.6724 4.56411 59.2193 4.46315 58.7332 4.46315C57.2256 4.46735 56.2452 5.35494 56.2493 6.68841C56.2534 8.03871 57.345 8.42992 58.3707 8.77486C59.38 9.1198 60.0761 9.32171 60.0803 10.0915C60.0803 10.5711 59.726 10.9328 59.0422 10.937C58.0906 10.937 57.3615 10.3018 56.4964 9.17027L56.1134 9.3175L56.6736 11.5806H56.9166L57.3285 11.2735C57.7982 11.5049 58.3254 11.6353 58.9062 11.6353C60.3521 11.6353 61.5467 10.7604 61.5426 9.35116ZM50.5976 9.64562C50.5976 8.90526 50.923 8.55612 52.5872 8.08919L52.5913 10.1925C52.1959 10.5122 51.8375 10.6594 51.4832 10.6594C50.9271 10.6636 50.5976 10.3607 50.5976 9.64562ZM53.7283 11.589C54.3379 11.589 54.9929 11.2946 55.4172 10.9917L55.2895 10.5837C54.5933 10.7141 54.3379 10.6131 54.3379 10.1336L54.3297 6.25934C54.3297 5.09834 53.8271 4.47577 52.2206 4.47577C50.4163 4.47997 49.094 5.46851 49.0982 6.39816C49.0982 6.84826 49.3989 7.22685 49.9097 7.22264C50.4905 7.22264 50.7747 6.82723 50.8612 6.43602C50.9477 5.98592 50.8036 5.6536 50.5893 5.46431C50.9436 5.28763 51.2979 5.2035 51.6686 5.19929C52.2783 5.19929 52.579 5.41383 52.579 5.98171L52.5831 7.43297C50.0415 8.07657 48.8757 8.64446 48.8757 10.0242C48.8757 11.0843 49.5472 11.6479 50.5976 11.6479C51.2649 11.6479 52.0311 11.3535 52.6861 10.8319C52.7891 11.3114 53.1186 11.589 53.7283 11.589ZM43.6401 7.12169C43.6401 5.94385 44.122 5.24977 45.0571 5.24557C45.7121 5.24557 46.124 5.72091 46.297 6.66738L43.6524 7.60123C43.6401 7.43718 43.6401 7.27733 43.6401 7.12169ZM48.0972 10.2051L47.7141 9.90222C47.5106 10.1408 47.2592 10.3319 46.9771 10.4625C46.6949 10.5932 46.3885 10.6603 46.0787 10.6594C44.7687 10.6636 44.0314 9.64562 43.7554 8.32476L48.0189 6.86509C47.9324 5.32549 46.8202 4.48839 45.4114 4.48839C43.4341 4.49259 41.9882 6.12053 41.9923 8.13967C41.9964 10.142 43.2487 11.6648 45.4526 11.6606C46.8037 11.6563 47.6152 11.0464 48.0972 10.2051ZM36.7814 11.08C35.9699 10.9665 35.8422 10.7604 35.8422 9.96531L35.8381 6.59587C36.5178 5.95647 37.045 5.63678 37.6423 5.63257C38.3385 5.63257 38.5403 5.99433 38.5403 6.64635L38.5445 9.9569C38.5445 10.7561 38.4168 10.9581 37.6094 11.0758V11.5259L41.2632 11.5175V11.0674C40.4517 10.9539 40.324 10.7477 40.324 9.95269L40.3199 6.48229C40.3199 5.32128 39.8338 4.49259 38.3962 4.4968C37.527 4.4968 36.6784 5.02262 35.8381 5.75035L35.8298 0H35.3026L33.0163 1.52698V1.84667H34.0544L34.0668 9.96111C34.0668 10.7604 33.9391 10.9623 33.1317 11.08V11.5301L36.7855 11.5217L36.7814 11.08ZM32.6991 10.8865L32.4849 10.4238C32.1018 10.6005 31.7599 10.6846 31.4634 10.6888C30.796 10.6888 30.623 10.3439 30.623 9.86436L30.6148 5.48955L32.419 5.48534V4.65665L30.6148 4.66086L30.6107 3.31055H30.3553L27.8013 5.02682V5.48955H28.8393L28.8476 10.2387C28.8476 11.181 29.3749 11.69 30.4129 11.6858C31.2244 11.6858 32.0195 11.4082 32.6991 10.8865ZM25.7334 11.1011C24.8107 10.9581 24.6788 10.7561 24.6788 9.85594L24.6747 6.86509C24.959 6.34347 25.2267 5.96489 25.5109 5.70408C25.5109 6.27196 25.8982 6.63373 26.3801 6.63373C26.8621 6.63373 27.3317 6.23831 27.3317 5.48534C27.3317 4.84594 26.9733 4.45473 26.3472 4.45473C25.651 4.45473 25.1114 5.05206 24.6006 5.89337L24.5964 4.42529H23.9703L21.9107 5.80924V6.12894H22.8911L22.8993 9.99055C22.8993 10.7898 22.7716 10.9917 21.9642 11.1095V11.5596L25.7334 11.5512V11.1011ZM15.4639 7.3867C15.4598 6.07846 16.0159 5.24977 17.1817 5.24977C18.6893 5.24557 19.1342 7.13431 19.1342 8.85899C19.1384 10.1672 18.5822 10.9959 17.4165 10.9959C15.9129 11.0043 15.468 9.11559 15.4639 7.3867ZM20.9097 8.0303C20.9055 6.12894 19.6533 4.53466 17.3629 4.53887C15.0602 4.54307 13.6844 6.24252 13.6885 8.2196C13.6926 10.121 14.9449 11.7152 17.2352 11.711C19.5379 11.7068 20.9138 10.0074 20.9097 8.0303ZM11.633 3.50405C11.6288 1.80461 12.0984 1.36713 12.9099 1.13577V0.685667L9.47031 0.689874V1.13997C10.2818 1.37133 10.7514 1.80461 10.7555 3.50405L10.7638 8.61501L3.4973 1.15259C3.09773 0.748766 2.94119 0.702494 2.6858 0.702494L0 0.710907V1.16101C0.584943 1.2199 0.922727 1.45126 1.59418 2.10327C1.80838 2.30519 2.00611 2.55337 2.00611 2.9572L2.01435 8.77907C2.01847 10.4785 1.54886 10.916 0.737358 11.1474V11.5975L4.17699 11.5932V11.1431C3.36548 10.9118 2.89588 10.4785 2.89176 8.77907L2.88352 3.28952L11.0562 11.6521H11.6371L11.633 3.50405Z" fill="black"/>
<path d="M5.4085 19.089C7.3515 19.089 9.1495 19.8865 10.005 22.105L7.54 22.7285C7.1195 21.699 6.5105 21.1915 5.423 21.1915C3.944 21.1915 3.0305 22.337 3.0305 24.396C3.0305 26.455 3.886 27.6585 5.4665 27.6585C6.699 27.6585 7.366 27.035 7.801 25.8895L10.2225 26.6145C9.4105 28.688 7.5545 29.761 5.3795 29.761C2.813 29.761 0.3915 28.2095 0.3915 24.4105C0.3915 20.684 2.813 19.089 5.4085 19.089ZM14.7331 21.525C17.3141 21.525 18.9236 23.2795 18.9236 25.614C18.9236 28.0645 17.2996 29.703 14.7331 29.703C12.0796 29.703 10.5426 28.0065 10.5426 25.614C10.5426 23.207 12.1086 21.525 14.7331 21.525ZM14.7331 23.4245C13.7326 23.4245 13.0946 24.077 13.0946 25.585C13.0946 27.064 13.7036 27.8035 14.7331 27.8035C15.7481 27.8035 16.3571 27.064 16.3571 25.585C16.3571 24.077 15.7191 23.4245 14.7331 23.4245ZM22.3615 19.35V29.5H19.9255V19.35H22.3615ZM26.1847 19.35V29.5H23.7487V19.35H26.1847ZM31.1245 21.525C33.5315 21.525 35.0105 23.149 35.0105 25.7735V26.2085H29.7035C29.776 27.325 30.4285 27.876 31.4 27.876C32.212 27.876 32.6905 27.47 33.0385 26.919L34.9525 27.8325C34.1985 29.0215 32.995 29.703 31.2695 29.703C28.7465 29.703 27.195 27.992 27.195 25.614C27.195 23.2215 28.645 21.525 31.1245 21.525ZM31.11 23.236C30.356 23.236 29.7615 23.671 29.689 24.7585H32.5455C32.4875 23.6855 31.951 23.236 31.11 23.236ZM43.6968 20.9305V22.8735C43.1748 22.8735 42.9138 22.9025 42.6093 23.004C42.8703 23.352 42.9718 23.758 42.9718 24.193C42.9718 25.5995 41.8408 26.716 39.4918 26.716C38.9118 26.716 38.4333 26.629 37.9983 26.484C37.8823 26.6145 37.7953 26.7595 37.7953 26.919C37.7953 27.238 38.0128 27.4265 38.7668 27.4265H40.0283C42.3338 27.4265 43.4358 28.4125 43.4358 29.79C43.4358 31.327 42.0873 32.284 39.3468 32.284C36.4033 32.284 35.5188 31.443 35.5188 30.312C35.5188 29.6595 35.9103 29.123 36.6353 28.804C36.0843 28.485 35.8668 27.992 35.8668 27.499C35.8668 26.948 36.2583 26.4115 36.8528 26.0345C36.1713 25.614 35.7508 24.9325 35.7508 24.135C35.7508 22.6705 36.9253 21.525 39.3178 21.525C40.1733 21.525 40.8693 21.699 41.4058 21.9455C41.9133 21.3365 42.6383 20.945 43.6968 20.9305ZM39.3903 23.062C38.6073 23.062 38.1723 23.468 38.1723 24.0915C38.1723 24.686 38.6073 25.0775 39.3758 25.0775C40.1443 25.0775 40.5938 24.7005 40.5938 24.077C40.5938 23.4535 40.1588 23.062 39.3903 23.062ZM39.6223 29.268H37.9258C37.6503 29.4565 37.5343 29.674 37.5343 29.935C37.5343 30.399 37.8533 30.6745 39.2598 30.6745C40.4778 30.6745 40.9418 30.399 40.9418 29.9205C40.9418 29.4275 40.5648 29.268 39.6223 29.268ZM47.7627 21.525C50.1697 21.525 51.6487 23.149 51.6487 25.7735V26.2085H46.3417C46.4142 27.325 47.0667 27.876 48.0382 27.876C48.8502 27.876 49.3287 27.47 49.6767 26.919L51.5907 27.8325C50.8367 29.0215 49.6332 29.703 47.9077 29.703C45.3847 29.703 43.8332 27.992 43.8332 25.614C43.8332 23.2215 45.2832 21.525 47.7627 21.525ZM47.7482 23.236C46.9942 23.236 46.3997 23.671 46.3272 24.7585H49.1837C49.1257 23.6855 48.5892 23.236 47.7482 23.236ZM59.3518 21.525C61.9328 21.525 63.5423 23.2795 63.5423 25.614C63.5423 28.0645 61.9183 29.703 59.3518 29.703C56.6983 29.703 55.1613 28.0065 55.1613 25.614C55.1613 23.207 56.7273 21.525 59.3518 21.525ZM59.3518 23.4245C58.3513 23.4245 57.7133 24.077 57.7133 25.585C57.7133 27.064 58.3223 27.8035 59.3518 27.8035C60.3668 27.8035 60.9758 27.064 60.9758 25.585C60.9758 24.077 60.3378 23.4245 59.3518 23.4245ZM67.5891 19.0745C68.2996 19.0745 68.9666 19.2195 69.4741 19.379V21.0755C69.0826 20.9595 68.5751 20.858 68.1256 20.858C67.5601 20.858 67.3281 21.003 67.3281 21.496V21.931H69.1696V23.642H67.3281V29.5H64.8921V23.642H63.8481V21.931H64.8921V21.3075C64.8921 19.9735 65.6896 19.0745 67.5891 19.0745ZM78.8474 29.5L78.4414 28.021H74.8599L74.4539 29.5H71.8584L75.0919 19.35H78.2964L81.5444 29.5H78.8474ZM77.8904 26.02L76.6579 21.2495L75.4109 26.02H77.8904ZM86.4686 21.525C86.6716 21.525 86.8601 21.5395 87.0631 21.5685V23.8885C86.7876 23.874 86.6861 23.874 86.5846 23.874C85.4101 23.874 84.4821 24.367 84.4821 26.484V29.5H82.0461V21.7425H84.3806V22.9895C84.9171 21.9165 85.6566 21.525 86.4686 21.525ZM90.5933 19.93V21.931H92.4058V23.642H90.5933V26.832C90.5933 27.47 90.7818 27.76 91.4633 27.76C91.8548 27.76 92.1593 27.702 92.5218 27.615V29.442C92.0143 29.6015 91.4198 29.703 90.7673 29.703C88.8098 29.703 88.1573 28.775 88.1573 27.209V23.642H87.1133V21.931H88.1573V19.93H90.5933ZM96.4955 21.525C97.989 21.525 99.12 22.018 99.874 22.6995L98.685 24.0335C98.0035 23.5115 97.3655 23.2505 96.597 23.2505C95.8285 23.2505 95.524 23.4825 95.524 23.845C95.524 24.251 95.7705 24.3815 97.3365 24.686C99.178 25.034 100.048 25.788 100.048 27.1945C100.048 28.6735 98.7285 29.703 96.423 29.703C94.625 29.703 93.494 29.181 92.5805 28.3835L93.7405 26.9915C94.5525 27.6875 95.3645 27.934 96.133 27.934C97.061 27.934 97.4815 27.6875 97.4815 27.296C97.4815 26.9045 97.3365 26.7305 95.7415 26.426C93.9 26.078 93.001 25.3675 93.001 24.0045C93.001 22.4095 94.5235 21.525 96.4955 21.525ZM102.473 26.7015C103.401 26.7015 104.025 27.3685 104.025 28.282C104.025 29.6595 103.271 31.008 102.227 32.052L100.98 31.3705C101.4 30.7035 101.647 30.167 101.719 29.355C101.255 29.036 100.965 28.7025 100.965 28.0645C100.965 27.3395 101.589 26.7015 102.473 26.7015ZM119.636 19.35V29.5H117.171V22.2645L115.286 29.5H112.908L110.834 22.3805V29.5H108.514V19.35H112.067L114.126 26.6L115.924 19.35H119.636ZM124.695 21.525C127.102 21.525 128.581 23.149 128.581 25.7735V26.2085H123.274C123.346 27.325 123.999 27.876 124.97 27.876C125.782 27.876 126.261 27.47 126.609 26.919L128.523 27.8325C127.769 29.0215 126.565 29.703 124.84 29.703C122.317 29.703 120.765 27.992 120.765 25.614C120.765 23.2215 122.215 21.525 124.695 21.525ZM124.68 23.236C123.926 23.236 123.332 23.671 123.259 24.7585H126.116C126.058 23.6855 125.521 23.236 124.68 23.236ZM137.151 19.35V29.5H134.817V28.688C134.251 29.384 133.439 29.703 132.569 29.703C130.525 29.703 129.191 28.0065 129.191 25.614C129.191 23.12 130.742 21.525 132.671 21.525C133.57 21.525 134.237 21.815 134.715 22.3225V19.35H137.151ZM133.323 23.41C132.308 23.41 131.743 24.164 131.743 25.6285C131.743 27.0785 132.323 27.8035 133.323 27.8035C134.28 27.8035 134.875 27.1075 134.875 25.6285C134.875 24.106 134.237 23.41 133.323 23.41ZM139.763 18.074C140.503 18.074 141.155 18.654 141.155 19.3935C141.155 20.133 140.503 20.713 139.763 20.713C139.024 20.713 138.371 20.133 138.371 19.3935C138.371 18.654 139.024 18.074 139.763 18.074ZM140.981 21.7425V29.5H138.545V21.7425H140.981ZM145.776 21.525C148.197 21.525 149.14 22.424 149.14 23.9755V27.7745C149.14 28.427 149.183 28.949 149.401 29.5H147.037C146.907 29.268 146.82 29.007 146.762 28.7315C146.225 29.442 145.442 29.703 144.529 29.703C142.89 29.703 141.962 28.7025 141.962 27.325C141.962 25.8315 142.847 24.947 145.239 24.6425L146.704 24.4685V24.1205C146.704 23.4245 146.515 23.178 145.732 23.178C144.993 23.178 144.703 23.439 144.674 24.077H142.267C142.325 22.395 143.601 21.525 145.776 21.525ZM146.704 25.9185L145.805 26.049C144.804 26.194 144.442 26.4985 144.442 27.064C144.442 27.5715 144.746 27.876 145.326 27.876C146.095 27.876 146.704 27.354 146.704 26.6V25.9185ZM156.778 21.525C159.2 21.525 160.142 22.424 160.142 23.9755V27.7745C160.142 28.427 160.186 28.949 160.403 29.5H158.04C157.909 29.268 157.822 29.007 157.764 28.7315C157.228 29.442 156.445 29.703 155.531 29.703C153.893 29.703 152.965 28.7025 152.965 27.325C152.965 25.8315 153.849 24.947 156.242 24.6425L157.706 24.4685V24.1205C157.706 23.4245 157.518 23.178 156.735 23.178C155.995 23.178 155.705 23.439 155.676 24.077H153.269C153.327 22.395 154.603 21.525 156.778 21.525ZM157.706 25.9185L156.807 26.049C155.807 26.194 155.444 26.4985 155.444 27.064C155.444 27.5715 155.749 27.876 156.329 27.876C157.097 27.876 157.706 27.354 157.706 26.6V25.9185ZM166.255 21.525C167.865 21.525 168.807 22.569 168.807 24.4395V29.5H166.371V25.1355C166.371 24.077 166.11 23.5695 165.298 23.5695C164.472 23.5695 163.906 24.251 163.906 25.2805V29.5H161.47V21.7425H163.805V22.7865C164.385 21.902 165.226 21.525 166.255 21.525ZM177.706 19.35V29.5H175.371V28.688C174.806 29.384 173.994 29.703 173.124 29.703C171.079 29.703 169.745 28.0065 169.745 25.614C169.745 23.12 171.297 21.525 173.225 21.525C174.124 21.525 174.791 21.815 175.27 22.3225V19.35H177.706ZM173.878 23.41C172.863 23.41 172.297 24.164 172.297 25.6285C172.297 27.0785 172.877 27.8035 173.878 27.8035C174.835 27.8035 175.429 27.1075 175.429 25.6285C175.429 24.106 174.791 23.41 173.878 23.41ZM185.555 19.35C188.441 19.35 191.094 20.626 191.094 24.28C191.094 28.253 188.47 29.5 186.005 29.5H182.133V19.35H185.555ZM185.628 21.3945H184.685V27.4555H186.005C187.194 27.4555 188.455 26.89 188.455 24.28C188.455 22.4675 187.658 21.3945 185.628 21.3945ZM195.736 21.525C198.143 21.525 199.622 23.149 199.622 25.7735V26.2085H194.315C194.388 27.325 195.04 27.876 196.012 27.876C196.824 27.876 197.302 27.47 197.65 26.919L199.564 27.8325C198.81 29.0215 197.607 29.703 195.881 29.703C193.358 29.703 191.807 27.992 191.807 25.614C191.807 23.2215 193.257 21.525 195.736 21.525ZM195.722 23.236C194.968 23.236 194.373 23.671 194.301 24.7585H197.157C197.099 23.6855 196.563 23.236 195.722 23.236ZM203.886 21.525C205.38 21.525 206.511 22.018 207.265 22.6995L206.076 24.0335C205.394 23.5115 204.756 23.2505 203.988 23.2505C203.219 23.2505 202.915 23.4825 202.915 23.845C202.915 24.251 203.161 24.3815 204.727 24.686C206.569 25.034 207.439 25.788 207.439 27.1945C207.439 28.6735 206.119 29.703 203.814 29.703C202.016 29.703 200.885 29.181 199.971 28.3835L201.131 26.9915C201.943 27.6875 202.755 27.934 203.524 27.934C204.452 27.934 204.872 27.6875 204.872 27.296C204.872 26.9045 204.727 26.7305 203.132 26.426C201.291 26.078 200.392 25.3675 200.392 24.0045C200.392 22.4095 201.914 21.525 203.886 21.525ZM209.53 18.074C210.27 18.074 210.922 18.654 210.922 19.3935C210.922 20.133 210.27 20.713 209.53 20.713C208.791 20.713 208.138 20.133 208.138 19.3935C208.138 18.654 208.791 18.074 209.53 18.074ZM210.748 21.7425V29.5H208.312V21.7425H210.748ZM219.835 20.9305V22.8735C219.313 22.8735 219.052 22.9025 218.747 23.004C219.008 23.352 219.11 23.758 219.11 24.193C219.11 25.5995 217.979 26.716 215.63 26.716C215.05 26.716 214.571 26.629 214.136 26.484C214.02 26.6145 213.933 26.7595 213.933 26.919C213.933 27.238 214.151 27.4265 214.905 27.4265H216.166C218.472 27.4265 219.574 28.4125 219.574 29.79C219.574 31.327 218.225 32.284 215.485 32.284C212.541 32.284 211.657 31.443 211.657 30.312C211.657 29.6595 212.048 29.123 212.773 28.804C212.222 28.485 212.005 27.992 212.005 27.499C212.005 26.948 212.396 26.4115 212.991 26.0345C212.309 25.614 211.889 24.9325 211.889 24.135C211.889 22.6705 213.063 21.525 215.456 21.525C216.311 21.525 217.007 21.699 217.544 21.9455C218.051 21.3365 218.776 20.945 219.835 20.9305ZM215.528 23.062C214.745 23.062 214.31 23.468 214.31 24.0915C214.31 24.686 214.745 25.0775 215.514 25.0775C216.282 25.0775 216.732 24.7005 216.732 24.077C216.732 23.4535 216.297 23.062 215.528 23.062ZM215.76 29.268H214.064C213.788 29.4565 213.672 29.674 213.672 29.935C213.672 30.399 213.991 30.6745 215.398 30.6745C216.616 30.6745 217.08 30.399 217.08 29.9205C217.08 29.4275 216.703 29.268 215.76 29.268ZM225.417 21.525C227.026 21.525 227.969 22.569 227.969 24.4395V29.5H225.533V25.1355C225.533 24.077 225.272 23.5695 224.46 23.5695C223.633 23.5695 223.068 24.251 223.068 25.2805V29.5H220.632V21.7425H222.966V22.7865C223.546 21.902 224.387 21.525 225.417 21.525Z" fill="black"/>
</svg>
