<svg width="100" height="76" viewBox="0 0 100 76" fill="none" xmlns="http://www.w3.org/2000/svg">
<path d="M3.243 28V5.6H10.507C14.155 5.6 17.643 7.296 17.643 12C17.643 14.72 15.627 16.032 15.307 16.128C15.627 16.192 18.795 17.344 18.795 21.376C18.795 25.312 15.531 28 11.307 28H3.243ZM11.179 24.352C13.291 24.352 14.891 23.488 14.891 21.376C14.891 19.264 13.291 18.4 11.179 18.4H7.083V24.352H11.179ZM7.083 14.752H10.379C12.523 14.752 13.739 13.952 13.739 12C13.739 10.048 12.267 9.248 10.379 9.248H7.083V14.752ZM28.262 12.448C32.422 12.448 35.91 15.68 35.91 20.352C35.91 20.64 35.91 21.216 35.878 21.792H24.55C24.838 23.136 26.406 24.864 28.806 24.864C31.462 24.864 32.966 23.328 32.966 23.328L34.886 26.208C34.886 26.208 32.486 28.384 28.806 28.384C24.198 28.384 20.646 24.864 20.646 20.416C20.646 15.968 23.878 12.448 28.262 12.448ZM24.55 19.008H32.07C32.006 17.696 30.79 15.936 28.262 15.936C25.798 15.936 24.678 17.664 24.55 19.008ZM47.3085 12.448C50.2525 12.448 52.8765 14.528 52.8765 18.176V28H49.0365V19.136C49.0365 16.96 47.6925 16.032 46.0285 16.032C44.0445 16.032 43.0205 18.016 43.0205 18.016V28H39.1805V3.808H43.0205V14.656C43.0205 14.656 44.3645 12.448 47.3085 12.448ZM57.3093 28V12.832H61.1493V28H57.3093ZM56.7013 7.936C56.7013 6.528 57.8213 5.408 59.2293 5.408C60.6373 5.408 61.7573 6.528 61.7573 7.936C61.7573 9.344 60.6373 10.464 59.2293 10.464C57.8213 10.464 56.7013 9.344 56.7013 7.936ZM73.7355 12.448C76.6795 12.448 79.3035 14.528 79.3035 18.176V28H75.4635V19.136C75.4635 16.96 74.1195 16.032 72.4555 16.032C70.4715 16.032 69.4475 17.984 69.4475 17.984V28H65.6075V12.832H69.1915V15.04C69.1915 15.04 70.5355 12.448 73.7355 12.448ZM97.6348 3.808V28H94.0828V26.016C94.0828 26.016 92.7708 28.384 89.5068 28.384C85.5708 28.384 82.1148 25.088 82.1148 20.416C82.1148 15.744 85.5708 12.448 89.5068 12.448C92.3868 12.448 93.7948 14.432 93.7948 14.432V3.808H97.6348ZM93.7948 22.688V18.144C93.7948 18.144 92.7068 16.032 90.1788 16.032C87.5868 16.032 86.0188 17.92 86.0188 20.416C86.0188 22.912 87.5868 24.8 90.1788 24.8C92.7068 24.8 93.7948 22.688 93.7948 22.688ZM54.499 66V47.248H48.323V43.6H64.515V47.248H58.339V66H54.499ZM75.4648 50.448C78.4088 50.448 81.0328 52.528 81.0328 56.176V66H77.1928V57.136C77.1928 54.96 75.8488 54.032 74.1848 54.032C72.2008 54.032 71.1768 56.016 71.1768 56.016V66H67.3368V41.808H71.1768V52.656C71.1768 52.656 72.5208 50.448 75.4648 50.448ZM91.4495 50.448C95.6095 50.448 99.0975 53.68 99.0975 58.352C99.0975 58.64 99.0975 59.216 99.0655 59.792H87.7375C88.0255 61.136 89.5935 62.864 91.9935 62.864C94.6495 62.864 96.1535 61.328 96.1535 61.328L98.0735 64.208C98.0735 64.208 95.6735 66.384 91.9935 66.384C87.3855 66.384 83.8335 62.864 83.8335 58.416C83.8335 53.968 87.0655 50.448 91.4495 50.448ZM87.7375 57.008H95.2575C95.1935 55.696 93.9775 53.936 91.4495 53.936C88.9855 53.936 87.8655 55.664 87.7375 57.008Z" fill="#BA3330"/>
</svg>
